<svg width="339" height="110" viewBox="0 0 339 110" xmlns="http://www.w3.org/2000/svg" xmlns:xlink="http://www.w3.org/1999/xlink">
  <use xlink:href="#a" fill="#FFF" opacity=".34" />
  <defs>
    <path id="a" fill-rule="evenodd" d="M331.573 110c2.302 0 4.22-.777 5.754-2.721 1.535-1.555 1.918-3.887 1.535-6.219 0-.389-7.673-38.48-54.092-41.979C281.317 26.042 253.313 0 219.937 0c-30.307 0-55.626 20.99-63.299 49.364-6.905-5.442-17.647-10.883-32.225-10.883-31.84.388-42.199 27.985-42.582 29.151-1.535 3.887.383 8.163 4.22 9.33 3.836 1.554 8.056-.39 9.207-4.276.383-.778 7.672-19.435 29.155-19.824 22.635 0 30.691 15.937 30.691 16.325 1.534 3.11 4.987 4.665 8.056 3.887 3.453-.777 5.754-3.887 5.754-6.996 0-28.375 22.634-51.696 51.023-51.696 28.005 0 51.022 22.933 51.022 51.696 0 3.887 3.07 7.385 7.289 7.385 26.471 0 37.98 12.438 43.35 21.378H7.407c-3.836 0-7.29 3.11-7.29 7.385C-.648 106.502 2.42 110 6.64 110h324.933z"/>
  </defs>
</svg>
