<svg width="3932" height="575" viewBox="0 0 3932 575" xmlns="http://www.w3.org/2000/svg" xmlns:xlink="http://www.w3.org/1999/xlink">
  <mask id="a">
    <rect x="0" y="-396" width="3932" height="971" fill="#FFF"/>
  </mask>
  <g mask="url(#a)">
    <use xlink:href="#b" transform="translate(3080 95)" fill="#0D4C63"/>
    <use xlink:href="#c" transform="translate(465 0)" fill="#0D4C63"/>
    <use xlink:href="#d" transform="translate(0 87)" fill="#0D4C63"/>
    <use xlink:href="#e" transform="translate(164 192)" fill="#1A6681"/>
  </g>
  <defs>
    <path id="b" fill-rule="evenodd" d="M0 132.02L70.052 0l61.238 137.123L0 132.02z"/>
    <path id="c" fill-rule="evenodd" d="M414.809 368.426l-19.722 37.165 109.488 4.255-51.069-114.343-37.646 70.944-50.151-112.288-44.444 83.754-43.353-97.068-58.419 110.088 92.945 3.613-5.148 9.701 107.519 4.179zM0 283.161l58.419-110.089 51.068 114.344L0 283.161zm1580.35-173.073L1638.77 0l51.07 114.344-109.49-4.256zm-131.7 29.871l58.42-110.088 51.07 114.344-109.49-4.256z"/>
    <path id="d" fill-rule="evenodd" d="M0 489.864s209.643-372.148 524.533-325.628c314.889 46.519 278.228 189.779 780.347 84.432C1807 143.321 1977.07-146.714 2344.38 91.534c367.3 238.247 600.74 89.71 600.74 89.71s781.19-365.517 980.33 278.503C4124.58 1103.77 0 489.864 0 489.864z"/>
    <path id="e" fill-rule="evenodd" d="M0 391.761s200.652-297.62 502.036-260.416c301.385 37.203 266.296 151.773 746.874 67.523 480.59-84.249 643.37-316.2 994.92-125.665 351.55 190.535 574.98 71.744 574.98 71.744s747.69-292.317 938.28 222.728C3947.68 882.72 0 391.761 0 391.761z"/>
  </defs>
</svg>
