<svg width="2003" height="1006" viewBox="0 0 2003 1006" xmlns="http://www.w3.org/2000/svg" xmlns:xlink="http://www.w3.org/1999/xlink">
  <g>
    <g transform="translate(2365 1077)">
      <g>
        <use xlink:href="#c" transform="translate(-1967.51 -1076.04)" fill="#003B50"/>
        <use xlink:href="#d" transform="translate(-1809.38 -930.007)" fill="#BDD8E1"/>
        <use xlink:href="#e" transform="translate(-1775.78 -888.623)" fill="#003B50"/>
        <use xlink:href="#f" transform="translate(-1897.45 -888.623)" fill="#D7F5FF"/>
        <use xlink:href="#g" transform="translate(-1661.48 -888.623)" fill="#003B50"/>
        <use xlink:href="#h" transform="translate(-1775.78 -704.879)" fill="#003B50"/>
        <use xlink:href="#i" transform="translate(-1661.48 -704.879)" fill="#003B50"/>
        <use xlink:href="#j" transform="translate(-1775.78 -521.136)" fill="#003B50"/>
        <use xlink:href="#k" transform="translate(-1661.48 -521.136)" fill="#003B50"/>
        <use xlink:href="#l" transform="translate(-1967.37 -1077)" fill="#DDEBF0"/>
      </g>
      <g>
          <use xlink:href="#m" transform="translate(-849 -931.605)" fill="#202D43"/>
          <use xlink:href="#n" transform="translate(-657.734 -931.777)" fill="#E0F4F1"/>
          <use xlink:href="#o" transform="translate(-597.521 -743.914)" fill="#79B1A9"/>
          <use xlink:href="#p" transform="translate(-555.017 -743.914)" fill="#79B1A9"/>
          <use xlink:href="#q" transform="translate(-512.514 -743.914)" fill="#79B1A9"/>
          <use xlink:href="#r" transform="translate(-470.01 -743.914)" fill="#79B1A9"/>
          <use xlink:href="#s" transform="translate(-427.507 -743.914)" fill="#79B1A9"/>
          <use xlink:href="#t" transform="translate(-597.521 -634.031)" fill="#79B1A9"/>
          <use xlink:href="#u" transform="translate(-555.017 -634.031)" fill="#79B1A9"/>
          <use xlink:href="#v" transform="translate(-512.514 -634.031)" fill="#79B1A9"/>
          <use xlink:href="#w" transform="translate(-470.01 -634.031)" fill="#79B1A9"/>
          <use xlink:href="#x" transform="translate(-427.507 -634.031)" fill="#79B1A9"/>
          <use xlink:href="#y" transform="translate(-817.122 -634.031)" fill="#FFF4D9"/>
          <use xlink:href="#z" transform="translate(-781.703 -634.031)" fill="#3367AB"/>
          <use xlink:href="#A" transform="translate(-746.283 -634.031)" fill="#FFF4D9"/>
          <use xlink:href="#B" transform="translate(-710.864 -634.031)" fill="#3367AB"/>
          <use xlink:href="#C" transform="translate(-817.122 -743.914)" fill="#FFF4D9"/>
          <use xlink:href="#D" transform="translate(-781.703 -743.914)" fill="#3367AB"/>
          <use xlink:href="#E" transform="translate(-746.283 -743.914)" fill="#FFF4D9"/>
          <use xlink:href="#F" transform="translate(-710.864 -743.914)" fill="#FFF4D9"/>
          <use xlink:href="#G" transform="translate(-817.122 -524.149)" fill="#FFF4D9"/>
          <use xlink:href="#H" transform="translate(-781.703 -524.149)" fill="#3367AB"/>
          <use xlink:href="#I" transform="translate(-746.283 -524.149)" fill="#FFF4D9"/>
          <use xlink:href="#J" transform="translate(-710.864 -524.149)" fill="#FFF4D9"/>
          <use xlink:href="#y" transform="translate(-817.122 -634.031)" fill="#FFF4D9"/>
          <use xlink:href="#A" transform="translate(-746.283 -634.031)" fill="#FFF4D9"/>
          <use xlink:href="#C" transform="translate(-817.122 -743.914)" fill="#FFF4D9"/>
          <use xlink:href="#E" transform="translate(-746.283 -743.914)" fill="#FFF4D9"/>
          <use xlink:href="#F" transform="translate(-710.864 -743.914)" fill="#FFF4D9"/>
          <use xlink:href="#G" transform="translate(-817.122 -524.149)" fill="#FFF4D9"/>
          <use xlink:href="#I" transform="translate(-746.283 -524.149)" fill="#FFF4D9"/>
          <use xlink:href="#J" transform="translate(-710.864 -524.149)" fill="#FFF4D9"/>
          <use xlink:href="#K" transform="translate(-816.864 -302.266)" fill="#FFF4D9"/>
          <use xlink:href="#L" transform="translate(-781.864 -302.266)" fill="#3367AB"/>
          <use xlink:href="#M" transform="translate(-746.864 -302.266)" fill="#3367AB"/>
          <use xlink:href="#N" transform="translate(-710.864 -302.266)" fill="#3367AB"/>
          <use xlink:href="#K" transform="translate(-816.864 -412.266)" fill="#3367AB"/>
          <use xlink:href="#L" transform="translate(-781.864 -412.266)" fill="#FFF4D9"/>
          <use xlink:href="#M" transform="translate(-746.864 -412.266)" fill="#3367AB"/>
          <use xlink:href="#N" transform="translate(-710.864 -412.266)" fill="#FFF4D9"/>
          <use xlink:href="#K" transform="translate(-816.864 -193.266)" fill="#FFF4D9"/>
          <use xlink:href="#L" transform="translate(-781.864 -193.266)" fill="#3367AB"/>
          <use xlink:href="#M" transform="translate(-746.864 -193.266)" fill="#FFF4D9"/>
          <use xlink:href="#N" transform="translate(-710.864 -193.266)" fill="#FFF4D9"/>
          <use xlink:href="#K" transform="translate(-816.864 -302.266)" fill="#FFF4D9"/>
          <use xlink:href="#L" transform="translate(-781.864 -412.266)" fill="#FFF4D9"/>
          <use xlink:href="#N" transform="translate(-710.864 -412.266)" fill="#FFF4D9"/>
          <use xlink:href="#K" transform="translate(-816.864 -193.266)" fill="#FFF4D9"/>
          <use xlink:href="#M" transform="translate(-746.864 -193.266)" fill="#FFF4D9"/>
          <use xlink:href="#N" transform="translate(-710.864 -193.266)" fill="#FFF4D9"/>
          <use xlink:href="#O" transform="translate(-597.521 -524.149)" fill="#79B1A9"/>
          <use xlink:href="#P" transform="translate(-555.017 -524.149)" fill="#79B1A9"/>
          <use xlink:href="#Q" transform="translate(-512.514 -524.149)" fill="#79B1A9"/>
          <use xlink:href="#R" transform="translate(-470.01 -524.149)" fill="#79B1A9"/>
          <use xlink:href="#S" transform="translate(-427.507 -524.149)" fill="#79B1A9"/>
      </g>
      <g>
          <use xlink:href="#m" transform="translate(-2365 -931.605)" fill="#202D43"/>
          <use xlink:href="#n" transform="translate(-2173.73 -931.777)" fill="#E0F4F1"/>
          <use xlink:href="#o" transform="translate(-2113.52 -743.914)" fill="#79B1A9"/>
          <use xlink:href="#p" transform="translate(-2071.02 -743.914)" fill="#79B1A9"/>
          <use xlink:href="#q" transform="translate(-2028.51 -743.914)" fill="#79B1A9"/>
          <use xlink:href="#r" transform="translate(-1986.01 -743.914)" fill="#79B1A9"/>
          <use xlink:href="#s" transform="translate(-1943.51 -743.914)" fill="#79B1A9"/>
          <use xlink:href="#t" transform="translate(-2113.52 -634.031)" fill="#79B1A9"/>
          <use xlink:href="#u" transform="translate(-2071.02 -634.031)" fill="#79B1A9"/>
          <use xlink:href="#v" transform="translate(-2028.51 -634.031)" fill="#79B1A9"/>
          <use xlink:href="#w" transform="translate(-1986.01 -634.031)" fill="#79B1A9"/>
          <use xlink:href="#x" transform="translate(-1943.51 -634.031)" fill="#79B1A9"/>
          <use xlink:href="#y" transform="translate(-2333.12 -634.031)" fill="#FFF4D9"/>
          <use xlink:href="#z" transform="translate(-2297.7 -634.031)" fill="#3367AB"/>
          <use xlink:href="#A" transform="translate(-2262.28 -634.031)" fill="#FFF4D9"/>
          <use xlink:href="#B" transform="translate(-2226.86 -634.031)" fill="#3367AB"/>
          <use xlink:href="#C" transform="translate(-2333.12 -743.914)" fill="#FFF4D9"/>
          <use xlink:href="#D" transform="translate(-2297.7 -743.914)" fill="#3367AB"/>
          <use xlink:href="#E" transform="translate(-2262.28 -743.914)" fill="#FFF4D9"/>
          <use xlink:href="#F" transform="translate(-2226.86 -743.914)" fill="#FFF4D9"/>
          <use xlink:href="#G" transform="translate(-2333.12 -524.149)" fill="#FFF4D9"/>
          <use xlink:href="#H" transform="translate(-2297.7 -524.149)" fill="#3367AB"/>
          <use xlink:href="#I" transform="translate(-2262.28 -524.149)" fill="#FFF4D9"/>
          <use xlink:href="#J" transform="translate(-2226.86 -524.149)" fill="#FFF4D9"/>
          <use xlink:href="#y" transform="translate(-2333.12 -634.031)" fill="#FFF4D9"/>
          <use xlink:href="#A" transform="translate(-2262.28 -634.031)" fill="#FFF4D9"/>
          <use xlink:href="#C" transform="translate(-2333.12 -743.914)" fill="#FFF4D9"/>
          <use xlink:href="#E" transform="translate(-2262.28 -743.914)" fill="#FFF4D9"/>
          <use xlink:href="#F" transform="translate(-2226.86 -743.914)" fill="#FFF4D9"/>
          <use xlink:href="#G" transform="translate(-2333.12 -524.149)" fill="#FFF4D9"/>
          <use xlink:href="#I" transform="translate(-2262.28 -524.149)" fill="#FFF4D9"/>
          <use xlink:href="#J" transform="translate(-2226.86 -524.149)" fill="#FFF4D9"/>
          <use xlink:href="#K" transform="translate(-2332.86 -302.266)" fill="#FFF4D9"/>
          <use xlink:href="#L" transform="translate(-2297.86 -302.266)" fill="#3367AB"/>
          <use xlink:href="#M" transform="translate(-2262.86 -302.266)" fill="#3367AB"/>
          <use xlink:href="#N" transform="translate(-2226.86 -302.266)" fill="#3367AB"/>
          <use xlink:href="#K" transform="translate(-2332.86 -412.266)" fill="#3367AB"/>
          <use xlink:href="#L" transform="translate(-2297.86 -412.266)" fill="#FFF4D9"/>
          <use xlink:href="#M" transform="translate(-2262.86 -412.266)" fill="#3367AB"/>
          <use xlink:href="#N" transform="translate(-2226.86 -412.266)" fill="#FFF4D9"/>
          <use xlink:href="#K" transform="translate(-2332.86 -193.266)" fill="#FFF4D9"/>
          <use xlink:href="#L" transform="translate(-2297.86 -193.266)" fill="#3367AB"/>
          <use xlink:href="#M" transform="translate(-2262.86 -193.266)" fill="#FFF4D9"/>
          <use xlink:href="#N" transform="translate(-2226.86 -193.266)" fill="#FFF4D9"/>
          <use xlink:href="#K" transform="translate(-2332.86 -302.266)" fill="#FFF4D9"/>
          <use xlink:href="#L" transform="translate(-2297.86 -412.266)" fill="#FFF4D9"/>
          <use xlink:href="#N" transform="translate(-2226.86 -412.266)" fill="#FFF4D9"/>
          <use xlink:href="#K" transform="translate(-2332.86 -193.266)" fill="#FFF4D9"/>
          <use xlink:href="#M" transform="translate(-2262.86 -193.266)" fill="#FFF4D9"/>
          <use xlink:href="#N" transform="translate(-2226.86 -193.266)" fill="#FFF4D9"/>
          <use xlink:href="#O" transform="translate(-2113.52 -524.149)" fill="#79B1A9"/>
          <use xlink:href="#P" transform="translate(-2071.02 -524.149)" fill="#79B1A9"/>
          <use xlink:href="#Q" transform="translate(-2028.51 -524.149)" fill="#79B1A9"/>
          <use xlink:href="#R" transform="translate(-1986.01 -524.149)" fill="#79B1A9"/>
          <use xlink:href="#S" transform="translate(-1943.51 -524.149)" fill="#79B1A9"/>
      </g>
      <g>
          <use xlink:href="#T" transform="translate(-1534.97 -754.65)" fill="#202D43"/>
          <use xlink:href="#U" transform="translate(-1343.7 -754.823)" fill="#194859"/>
          <use xlink:href="#o" transform="translate(-1283.49 -566.959)" fill="#FFF4D9"/>
          <use xlink:href="#p" transform="translate(-1240.99 -566.959)" fill="#FFF4D9"/>
          <use xlink:href="#q" transform="translate(-1198.48 -566.959)" fill="#FFF4D9"/>
          <use xlink:href="#r" transform="translate(-1155.98 -566.959)" fill="#FFF4D9"/>
          <use xlink:href="#s" transform="translate(-1113.48 -566.959)" fill="#FFF4D9"/>
          <use xlink:href="#V" transform="translate(-1283.49 -457.077)" fill="#FFF4D9"/>
          <use xlink:href="#W" transform="translate(-1240.99 -457.077)" fill="#FFF4D9"/>
          <use xlink:href="#X" transform="translate(-1198.48 -457.077)" fill="#FFF4D9"/>
          <use xlink:href="#Y" transform="translate(-1155.98 -457.077)" fill="#FFF4D9"/>
          <use xlink:href="#Z" transform="translate(-1113.48 -457.077)" fill="#FFF4D9"/>
          <use xlink:href="#y" transform="translate(-1503.09 -457.077)" fill="#58948B"/>
          <use xlink:href="#z" transform="translate(-1467.67 -457.077)" fill="#58948B"/>
          <use xlink:href="#A" transform="translate(-1432.25 -457.077)" fill="#FFF4D9"/>
          <use xlink:href="#B" transform="translate(-1396.83 -457.077)" fill="#FFF4D9"/>
          <use xlink:href="#C" transform="translate(-1503.09 -566.959)" fill="#58948B"/>
          <use xlink:href="#D" transform="translate(-1467.67 -566.959)" fill="#58948B"/>
          <use xlink:href="#E" transform="translate(-1432.25 -566.959)" fill="#FFF4D9"/>
          <use xlink:href="#F" transform="translate(-1396.83 -566.959)" fill="#FFF4D9"/>
          <use xlink:href="#G" transform="translate(-1503.09 -347.194)" fill="#58948B"/>
          <use xlink:href="#H" transform="translate(-1467.67 -347.194)" fill="#58948B"/>
          <use xlink:href="#I" transform="translate(-1432.25 -347.194)" fill="#FFF4D9"/>
          <use xlink:href="#J" transform="translate(-1396.83 -347.194)" fill="#FFF4D9"/>
          <use xlink:href="#o" transform="translate(-1283.49 -566.959)" fill="#FFF4D9"/>
          <use xlink:href="#p" transform="translate(-1240.99 -566.959)" fill="#FFF4D9"/>
          <use xlink:href="#q" transform="translate(-1198.48 -566.959)" fill="#FFF4D9"/>
          <use xlink:href="#r" transform="translate(-1155.98 -566.959)" fill="#FFF4D9"/>
          <use xlink:href="#s" transform="translate(-1113.48 -566.959)" fill="#FFF4D9"/>
          <use xlink:href="#V" transform="translate(-1283.49 -457.077)" fill="#FFF4D9"/>
          <use xlink:href="#W" transform="translate(-1240.99 -457.077)" fill="#FFF4D9"/>
          <use xlink:href="#X" transform="translate(-1198.48 -457.077)" fill="#FFF4D9"/>
          <use xlink:href="#Y" transform="translate(-1155.98 -457.077)" fill="#FFF4D9"/>
          <use xlink:href="#Z" transform="translate(-1113.48 -457.077)" fill="#FFF4D9"/>
          <use xlink:href="#A" transform="translate(-1432.25 -457.077)" fill="#FFF4D9"/>
          <use xlink:href="#B" transform="translate(-1396.83 -457.077)" fill="#FFF4D9"/>
          <use xlink:href="#E" transform="translate(-1432.25 -566.959)" fill="#FFF4D9"/>
          <use xlink:href="#F" transform="translate(-1396.83 -566.959)" fill="#FFF4D9"/>
          <use xlink:href="#I" transform="translate(-1432.25 -347.194)" fill="#FFF4D9"/>
          <use xlink:href="#J" transform="translate(-1396.83 -347.194)" fill="#FFF4D9"/>
      </g>
      <g>
          <use xlink:href="#aa" transform="translate(-1811.37 -1074.44)" fill="#003B50"/>
          <use xlink:href="#ab" transform="translate(-1653.33 -928.412)" fill="#BDD8E1"/>
          <use xlink:href="#ac" transform="translate(-1619.74 -887.029)" fill="#003B50"/>
          <use xlink:href="#ad" transform="translate(-1741.35 -887.029)" fill="#D7F5FF"/>
          <use xlink:href="#ae" transform="translate(-1505.5 -887.029)" fill="#003B50"/>
          <use xlink:href="#af" transform="translate(-1619.74 -766.582)" fill="#003B50"/>
          <use xlink:href="#ag" transform="translate(-1505.5 -766.582)" fill="#003B50"/>
          <use xlink:href="#ah" transform="translate(-1619.74 -519.561)" fill="#003B50"/>
          <use xlink:href="#ai" transform="translate(-1505.5 -519.561)" fill="#003B50"/>
          <use xlink:href="#aj" transform="translate(-1811.24 -1075.4)" fill="#DDEBF0"/>
      </g>
    </g>
  </g>
<defs>
    <path id="a" d="M0 0h2003v1006H0V0z"/>
    <path id="c" fill-rule="evenodd" d="M165.919 224.61V0H0v1287.01H365.021L353.96 269.532 165.919 0v224.61z"/>
    <path id="d" fill-rule="evenodd" d="M0 0h206.477l.42 541.167H.42L0 0z"/>
    <path id="e" d="M14.748 0H0v69.823h14.748V0z"/>
    <path id="f" d="M14.748 0H0v69.823h14.748V0z"/>
    <path id="g" d="M14.748 0H0v69.823h14.748V0z"/>
    <path id="h" d="M14.748 0H0v69.823h14.748V0z"/>
    <path id="i" d="M14.748 0H0v69.823h14.748V0z"/>
    <path id="j" d="M14.748 0H0v69.823h14.748V0z"/>
    <path id="k" d="M14.748 0H0v69.823h14.748V0z"/>
    <path id="l" fill-rule="evenodd" d="M204.854 0l160.032 147.954H158.409L0 0h204.854z"/>
    <path id="m" fill-rule="evenodd" d="M486.107 179.54v916.55H0V179.54L146.225.046 337.113 0l148.994 179.54z"/>
    <path id="n" fill-rule="evenodd" d="M0 179.712L146.403 0l148.854 179.712v962.678H0V179.712z"/>
    <path id="o" d="M14.168 0H0v67.347h14.168V0z"/>
    <path id="p" d="M14.168 0H0v67.347h14.168V0z"/>
    <path id="q" d="M14.168 0H0v67.347h14.168V0z"/>
    <path id="r" d="M14.168 0H0v67.347h14.168V0z"/>
    <path id="s" d="M14.168 0H0v67.347h14.168V0z"/>
    <path id="t" d="M14.168 0H0v67.347h14.168V0z"/>
    <path id="u" d="M14.168 0H0v67.347h14.168V0z"/>
    <path id="v" d="M14.168 0H0v67.347h14.168V0z"/>
    <path id="w" d="M14.168 0H0v67.347h14.168V0z"/>
    <path id="x" d="M14.168 0H0v67.347h14.168V0z"/>
    <path id="y" d="M14.168 0H0v67.347h14.168V0z"/>
    <path id="z" d="M14.168 0H0v67.347h14.168V0z"/>
    <path id="A" d="M14.168 0H0v67.347h14.168V0z"/>
    <path id="B" d="M14.168 0H0v67.347h14.168V0z"/>
    <path id="C" d="M14.168 0H0v67.347h14.168V0z"/>
    <path id="D" d="M14.168 0H0v67.347h14.168V0z"/>
    <path id="E" d="M14.168 0H0v67.347h14.168V0z"/>
    <path id="F" d="M14.168 0H0v67.347h14.168V0z"/>
    <path id="G" d="M14.168 0H0v67.347h14.168V0z"/>
    <path id="H" d="M14.168 0H0v67.347h14.168V0z"/>
    <path id="I" d="M14.168 0H0v67.347h14.168V0z"/>
    <path id="J" d="M14.168 0H0v67.347h14.168V0z"/>
    <path id="K" d="M14.168 0H0v67.347h14.168V0z"/>
    <path id="L" d="M14.168 0H0v67.347h14.168V0z"/>
    <path id="M" d="M14.168 0H0v67.347h14.168V0z"/>
    <path id="N" d="M14.168 0H0v67.347h14.168V0z"/>
    <path id="O" d="M14.168 0H0v67.347h14.168V0z"/>
    <path id="P" d="M14.168 0H0v67.347h14.168V0z"/>
    <path id="Q" d="M14.168 0H0v67.347h14.168V0z"/>
    <path id="R" d="M14.168 0H0v67.347h14.168V0z"/>
    <path id="S" d="M14.168 0H0v67.347h14.168V0z"/>
    <path id="T" fill-rule="evenodd" d="M486.107 179.54v705.593H0V179.54L146.225.046 337.113 0l148.994 179.54z"/>
    <path id="U" fill-rule="evenodd" d="M0 179.712L146.403 0l148.854 179.712v748.672H0V179.712z"/>
    <path id="V" d="M14.168 0H0v40.086h14.168V0z"/>
    <path id="W" d="M14.168 0H0v40.086h14.168V0z"/>
    <path id="X" d="M14.168 0H0v40.086h14.168V0z"/>
    <path id="Y" d="M14.168 0H0v40.086h14.168V0z"/>
    <path id="Z" d="M14.168 0H0v40.086h14.168V0z"/>
    <path id="aa" fill-rule="evenodd" d="M165.833 249.48V0H0v1429.52H364.833L353.778 299.376 165.833 0v249.48z"/>
    <path id="ab" fill-rule="evenodd" d="M0 0h206.37l.421 1283.49H.421L0 0z"/>
    <path id="ac" d="M14.74 0H0v69.819h14.74V0z"/>
    <path id="ad" d="M14.74 0H0v69.819h14.74V0z"/>
    <path id="ae" d="M14.74 0H0v69.819h14.74V0z"/>
    <path id="af" d="M14.74 0H0v69.819h14.74V0z"/>
    <path id="ag" d="M14.74 0H0v69.819h14.74V0z"/>
    <path id="ah" d="M14.74 0H0v69.819h14.74V0z"/>
    <path id="ai" d="M14.74 0H0v69.819h14.74V0z"/>
    <path id="aj" fill-rule="evenodd" d="M204.749 0l159.949 147.946h-206.37L0 0h204.749z"/>
</defs>
</svg>
